HIERARCHY
ROOT ui
{
	 OFFSET 0 0 0
	 CHANNELS 3 XPosition YPosition Z Position
	 EndSite
	 {
	 OFFSET 0 -1 0
	 }
}
ROOT li
{
	 OFFSET 0 0 0
	 CHANNELS 3 XPosition YPosition Z Position
	 EndSite
	 {
	 OFFSET 0 -1 0
	 }
}
ROOT ul
{
	 OFFSET 0 0 0
	 CHANNELS 3 XPosition YPosition Z Position
	 EndSite
	 {
	 OFFSET 0 -1 0
	 }
}
ROOT ll
{
	 OFFSET 0 0 0
	 CHANNELS 3 XPosition YPosition Z Position
	 EndSite
	 {
	 OFFSET 0 -1 0
	 }
}
ROOT tt
{
	 OFFSET 0 0 0
	 CHANNELS 3 XPosition YPosition Z Position
	 EndSite
	 {
	 OFFSET 0 -1 0
	 }
}
ROOT tb
{
	 OFFSET 0 0 0
	 CHANNELS 3 XPosition YPosition Z Position
	 EndSite
	 {
	 OFFSET 0 -1 0
	 }
}
ROOT td
{
	 OFFSET 0 0 0
	 CHANNELS 3 XPosition YPosition Z Position
	 EndSite
	 {
	 OFFSET 0 -1 0
	 }
}
ROOT v
{
	 OFFSET 0 0 0
	 CHANNELS 3 XPosition YPosition Z Position
	 EndSite
	 {
	 OFFSET 0 -1 0
	 }
}
ROOT bn
{
	 OFFSET 0 0 0
	 CHANNELS 3 XPosition YPosition Z Position
	 EndSite
	 {
	 OFFSET 0 -1 0
	 }
}
MOTION
Frames: 13
Frame Time: 0.002
0.03382242965698242	-0.013049203872680664	0		0.5834086303710937	-2.5358671875	0		-0.9859261474609375	-0.15174955749511718	0		-0.5024055786132813	-2.596764404296875	0		1.5557882080078125	-1.350518798828125	0		2.782089111328125	-0.17323617553710938	0		4.2957412109375	0.4515375061035156	0		5.97211376953125	0.4723029479980469	0		-0.11425247955322265	5.94617236328125	0		
-0.024464832305908204	4.6658399701118467E-4	0		0.536146484375	-2.523475830078125	0		-0.972493896484375	-0.16211550903320313	0		-0.503356689453125	-2.55894580078125	0		1.556360107421875	-1.3506905517578125	0		2.78451025390625	-0.18441270446777344	0		4.2932861328125	0.4514432678222656	0		5.9646591796875	0.472294189453125	0		-0.1478603515625	5.94038623046875	0		
0.02908230972290039	-3.6995598673820497E-4	0		0.5387554931640625	-2.521690673828125	0		-0.9759885864257812	-0.16627810668945311	0		-0.5243360595703125	-2.52288818359375	0		1.5599652099609376	-1.34790380859375	0		2.787244384765625	-0.16959825134277343	0		4.29701123046875	0.4662660217285156	0		5.96520361328125	0.4721767272949219	0		-0.146401611328125	5.93917431640625	0		
-0.020317811965942383	0.004031064987182617	0		0.5663067016601563	-2.524209716796875	0		-0.9794743041992188	-0.16944161987304687	0		-0.4824850158691406	-2.50058984375	0		1.5605289306640624	-1.34808642578125	0		2.788662109375	-0.1807779083251953	0		4.29737353515625	0.45111611938476565	0		5.96574609375	0.47204498291015623	0		-0.130790771484375	5.94979052734375	0		
0.030172460556030272	-7.730039954185486E-4	0		0.5398982543945312	-2.5220830078125	0		-0.982978515625	-0.17360545349121093	0		-0.5214840087890625	-2.464319091796875	0		1.5521322021484374	-1.3441669921875	0		2.792265625	-0.17599139404296876	0		4.2940078125	0.4590006408691406	0		5.96628369140625	0.47189755249023435	0		-0.11137776947021484	5.9433583984375	0		
-0.022292152404785156	-3.416979908943176E-4	0		0.5943831787109375	-2.52793359375	0		-0.98244580078125	-0.1738179168701172	0		-0.5394775390625	-2.426302734375	0		1.547601318359375	-1.350301513671875	0		2.78176318359375	-0.1790454864501953	0		4.28945263671875	0.4518850708007813	0		5.95781298828125	0.471841064453125	0		-0.14495675659179688	5.937560546875	0		
-0.021775659561157228	-5.504080057144165E-4	0		0.5170601196289063	-2.51520361328125	0		-1.033153076171875	-0.19241676330566407	0		-0.557709228515625	-2.406286865234375	0		1.5540390625	-1.3575751953125	0		2.778316650390625	-0.1761945343017578	0		4.28996728515625	0.4516945495605469	0		5.9552314453125	0.4636942138671875	0		-0.14248948669433595	5.93532763671875	0		
-0.018228853225708008	0.003201422929763794	0		0.5755584106445313	-2.516111328125	0		-0.9536234741210937	-0.1905789794921875	0		-0.5409918823242188	-2.38869287109375	0		1.5626473388671875	-1.3488814697265625	0		2.803657958984375	-0.1897017822265625	0		4.28255029296875	0.45858428955078123	0		5.96881298828125	0.47033407592773435	0		-0.12489192199707032	5.94391064453125	0		
-0.01774541473388672	0.002985975980758667	0		0.5401727905273438	-2.50489599609375	0		-0.9590798950195313	-0.18572132873535158	0		-0.531404541015625	-2.380016357421875	0		1.5491058349609375	-1.3509310302734374	0		2.7881904296875	-0.18572955322265625	0		4.2900458984375	0.45927828979492186	0		5.964201171875	0.46217031860351565	0		-0.14150648498535157	5.934900390625	0		
0.03267678833007812	-0.0018344199657440185	0		0.582644775390625	-2.504623046875	0		-0.9526672973632813	-0.19100888061523438	0		-0.5608307495117187	-2.370874267578125	0		1.54957373046875	-1.3511578369140624	0		2.7634609375	-0.2026600799560547	0		4.2815224609375	0.4591477355957031	0		5.9486904296875	0.46311651611328125	0		-0.14100679016113282	5.93468115234375	0		
-0.019847713470458984	-0.0014231890439987183	0		0.53016259765625	-2.499216064453125	0		-0.952197021484375	-0.19122784423828126	0		-0.5173309326171875	-2.36761328125	0		1.5948763427734376	-1.3649345703125	0		2.796796630859375	-0.21430136108398437	0		4.28500927734375	0.4598554992675781	0		5.95715283203125	0.4617524719238281	0		-0.10544744110107422	5.93803515625	0		
0.0336243782043457	-0.0022932910919189454	0		0.5415413818359375	-2.505585693359375	0		-1.016730224609375	-0.1916690673828125	0		-0.578680908203125	-2.351095947265625	0		1.554378173828125	-1.361689453125	0		2.76528466796875	-0.21317605590820313	0		4.27757421875	0.46667718505859374	0		5.95862109375	0.46045028686523437	0		-0.1370079803466797	5.93018896484375	0		
-0.01583896827697754	0.0020679240226745606	0		0.5091789855957031	-2.490436279296875	0		-1.0081639404296876	-0.18499392700195313	0		-0.5630328369140625	-2.33551123046875	0		1.556882568359375	-1.358972900390625	0		2.794692626953125	-0.21979867553710938	0		4.27698046875	0.45939767456054686	0		5.95830419921875	0.4761487426757812	0		-0.12131993103027344	5.94076904296875	0		
